<svg width="381" height="243" viewBox="0 0 381 243" fill="none" xmlns="http://www.w3.org/2000/svg">
<g clip-path="url(#clip0_1_693)">
<rect x="0.65332" width="380" height="800" rx="50" fill="white"/>
<path d="M45.4813 54H57.6533V56H45.4813L50.8453 61.364L49.4313 62.778L41.6533 55L49.4313 47.222L50.8453 48.636L45.4813 54Z" fill="#1A191E"/>
<path d="M154.193 62.24C153.167 62.24 152.267 62.06 151.493 61.7C150.72 61.34 150.113 60.8267 149.673 60.16C149.247 59.4933 149.027 58.7 149.013 57.78H151.253C151.267 58.5267 151.527 59.16 152.033 59.68C152.54 60.2 153.253 60.46 154.173 60.46C154.987 60.46 155.62 60.2667 156.073 59.88C156.54 59.48 156.773 58.9733 156.773 58.36C156.773 57.8667 156.66 57.4667 156.433 57.16C156.22 56.8533 155.92 56.6 155.533 56.4C155.16 56.2 154.727 56.02 154.233 55.86C153.74 55.7 153.22 55.5267 152.673 55.34C151.593 54.98 150.78 54.5133 150.233 53.94C149.7 53.3667 149.433 52.6133 149.433 51.68C149.42 50.8933 149.6 50.2067 149.973 49.62C150.36 49.0333 150.893 48.58 151.573 48.26C152.267 47.9267 153.073 47.76 153.993 47.76C154.9 47.76 155.693 47.9267 156.373 48.26C157.067 48.5933 157.607 49.06 157.993 49.66C158.38 50.2467 158.58 50.9333 158.593 51.72H156.353C156.353 51.36 156.26 51.02 156.073 50.7C155.887 50.3667 155.613 50.0933 155.253 49.88C154.893 49.6667 154.453 49.56 153.933 49.56C153.267 49.5467 152.713 49.7133 152.273 50.06C151.847 50.4067 151.633 50.8867 151.633 51.5C151.633 52.0467 151.793 52.4667 152.113 52.76C152.433 53.0533 152.873 53.3 153.433 53.5C153.993 53.6867 154.633 53.9067 155.353 54.16C156.047 54.3867 156.667 54.66 157.213 54.98C157.76 55.3 158.193 55.72 158.513 56.24C158.847 56.76 159.013 57.42 159.013 58.22C159.013 58.9267 158.833 59.5867 158.473 60.2C158.113 60.8 157.573 61.2933 156.853 61.68C156.133 62.0533 155.247 62.24 154.193 62.24ZM164.811 62C163.838 62 163.064 61.7667 162.491 61.3C161.918 60.82 161.631 59.9733 161.631 58.76V53.86H159.931V52.08H161.631L161.891 49.56H163.751V52.08H166.551V53.86H163.751V58.76C163.751 59.3067 163.864 59.6867 164.091 59.9C164.331 60.1 164.738 60.2 165.311 60.2H166.451V62H164.811ZM171.497 62.24C170.657 62.24 169.964 62.1 169.417 61.82C168.87 61.54 168.464 61.1733 168.197 60.72C167.93 60.2533 167.797 59.7467 167.797 59.2C167.797 58.24 168.17 57.48 168.917 56.92C169.664 56.36 170.73 56.08 172.117 56.08H174.717V55.9C174.717 55.1267 174.504 54.5467 174.077 54.16C173.664 53.7733 173.124 53.58 172.457 53.58C171.87 53.58 171.357 53.7267 170.917 54.02C170.49 54.3 170.23 54.72 170.137 55.28H168.017C168.084 54.56 168.324 53.9467 168.737 53.44C169.164 52.92 169.697 52.5267 170.337 52.26C170.99 51.98 171.704 51.84 172.477 51.84C173.864 51.84 174.937 52.2067 175.697 52.94C176.457 53.66 176.837 54.6467 176.837 55.9V62H174.997L174.817 60.3C174.537 60.8467 174.13 61.3067 173.597 61.68C173.064 62.0533 172.364 62.24 171.497 62.24ZM171.917 60.52C172.49 60.52 172.97 60.3867 173.357 60.12C173.757 59.84 174.064 59.4733 174.277 59.02C174.504 58.5667 174.644 58.0667 174.697 57.52H172.337C171.497 57.52 170.897 57.6667 170.537 57.96C170.19 58.2533 170.017 58.62 170.017 59.06C170.017 59.5133 170.184 59.8733 170.517 60.14C170.864 60.3933 171.33 60.52 171.917 60.52ZM182.674 62C181.7 62 180.927 61.7667 180.354 61.3C179.78 60.82 179.494 59.9733 179.494 58.76V53.86H177.794V52.08H179.494L179.754 49.56H181.614V52.08H184.414V53.86H181.614V58.76C181.614 59.3067 181.727 59.6867 181.954 59.9C182.194 60.1 182.6 60.2 183.174 60.2H184.314V62H182.674ZM187.2 50.2C186.8 50.2 186.466 50.08 186.2 49.84C185.946 49.5867 185.82 49.2733 185.82 48.9C185.82 48.5267 185.946 48.22 186.2 47.98C186.466 47.7267 186.8 47.6 187.2 47.6C187.6 47.6 187.926 47.7267 188.18 47.98C188.446 48.22 188.58 48.5267 188.58 48.9C188.58 49.2733 188.446 49.5867 188.18 49.84C187.926 50.08 187.6 50.2 187.2 50.2ZM186.14 62V52.08H188.26V62H186.14ZM194.418 62.24C193.165 62.24 192.131 61.9333 191.318 61.32C190.505 60.7067 190.038 59.8933 189.918 58.88H192.058C192.165 59.3333 192.418 59.7267 192.818 60.06C193.218 60.38 193.745 60.54 194.398 60.54C195.038 60.54 195.505 60.4067 195.798 60.14C196.091 59.8733 196.238 59.5667 196.238 59.22C196.238 58.7133 196.031 58.3733 195.618 58.2C195.218 58.0133 194.658 57.8467 193.938 57.7C193.378 57.58 192.818 57.42 192.258 57.22C191.711 57.02 191.251 56.74 190.878 56.38C190.518 56.0067 190.338 55.5067 190.338 54.88C190.338 54.0133 190.671 53.2933 191.338 52.72C192.005 52.1333 192.938 51.84 194.138 51.84C195.245 51.84 196.138 52.1067 196.818 52.64C197.511 53.1733 197.918 53.9267 198.038 54.9H195.998C195.931 54.4733 195.731 54.14 195.398 53.9C195.078 53.66 194.645 53.54 194.098 53.54C193.565 53.54 193.151 53.6533 192.858 53.88C192.565 54.0933 192.418 54.3733 192.418 54.72C192.418 55.0667 192.618 55.34 193.018 55.54C193.431 55.74 193.971 55.92 194.638 56.08C195.305 56.2267 195.918 56.4 196.478 56.6C197.051 56.7867 197.511 57.0667 197.858 57.44C198.205 57.8133 198.378 58.36 198.378 59.08C198.391 59.9867 198.038 60.74 197.318 61.34C196.611 61.94 195.645 62.24 194.418 62.24ZM203.881 62C202.908 62 202.135 61.7667 201.561 61.3C200.988 60.82 200.701 59.9733 200.701 58.76V53.86H199.001V52.08H200.701L200.961 49.56H202.821V52.08H205.621V53.86H202.821V58.76C202.821 59.3067 202.935 59.6867 203.161 59.9C203.401 60.1 203.808 60.2 204.381 60.2H205.521V62H203.881ZM208.407 50.2C208.007 50.2 207.674 50.08 207.407 49.84C207.154 49.5867 207.027 49.2733 207.027 48.9C207.027 48.5267 207.154 48.22 207.407 47.98C207.674 47.7267 208.007 47.6 208.407 47.6C208.807 47.6 209.134 47.7267 209.387 47.98C209.654 48.22 209.787 48.5267 209.787 48.9C209.787 49.2733 209.654 49.5867 209.387 49.84C209.134 50.08 208.807 50.2 208.407 50.2ZM207.347 62V52.08H209.467V62H207.347ZM216.366 62.24C215.393 62.24 214.519 62.02 213.746 61.58C212.986 61.14 212.386 60.5333 211.946 59.76C211.519 58.9733 211.306 58.0667 211.306 57.04C211.306 56.0133 211.519 55.1133 211.946 54.34C212.386 53.5533 212.986 52.94 213.746 52.5C214.519 52.06 215.393 51.84 216.366 51.84C217.593 51.84 218.619 52.16 219.446 52.8C220.286 53.44 220.826 54.3067 221.066 55.4H218.846C218.713 54.8533 218.419 54.4267 217.966 54.12C217.513 53.8133 216.979 53.66 216.366 53.66C215.846 53.66 215.366 53.7933 214.926 54.06C214.486 54.3133 214.133 54.6933 213.866 55.2C213.599 55.6933 213.466 56.3067 213.466 57.04C213.466 57.7733 213.599 58.3933 213.866 58.9C214.133 59.3933 214.486 59.7733 214.926 60.04C215.366 60.3067 215.846 60.44 216.366 60.44C216.979 60.44 217.513 60.2867 217.966 59.98C218.419 59.6733 218.713 59.24 218.846 58.68H221.066C220.839 59.7467 220.306 60.6067 219.466 61.26C218.626 61.9133 217.593 62.24 216.366 62.24ZM226.725 62.24C225.472 62.24 224.439 61.9333 223.625 61.32C222.812 60.7067 222.345 59.8933 222.225 58.88H224.365C224.472 59.3333 224.725 59.7267 225.125 60.06C225.525 60.38 226.052 60.54 226.705 60.54C227.345 60.54 227.812 60.4067 228.105 60.14C228.399 59.8733 228.545 59.5667 228.545 59.22C228.545 58.7133 228.339 58.3733 227.925 58.2C227.525 58.0133 226.965 57.8467 226.245 57.7C225.685 57.58 225.125 57.42 224.565 57.22C224.019 57.02 223.559 56.74 223.185 56.38C222.825 56.0067 222.645 55.5067 222.645 54.88C222.645 54.0133 222.979 53.2933 223.645 52.72C224.312 52.1333 225.245 51.84 226.445 51.84C227.552 51.84 228.445 52.1067 229.125 52.64C229.819 53.1733 230.225 53.9267 230.345 54.9H228.305C228.239 54.4733 228.039 54.14 227.705 53.9C227.385 53.66 226.952 53.54 226.405 53.54C225.872 53.54 225.459 53.6533 225.165 53.88C224.872 54.0933 224.725 54.3733 224.725 54.72C224.725 55.0667 224.925 55.34 225.325 55.54C225.739 55.74 226.279 55.92 226.945 56.08C227.612 56.2267 228.225 56.4 228.785 56.6C229.359 56.7867 229.819 57.0667 230.165 57.44C230.512 57.8133 230.685 58.36 230.685 59.08C230.699 59.9867 230.345 60.74 229.625 61.34C228.919 61.94 227.952 62.24 226.725 62.24Z" fill="#1A191E"/>
<path d="M330.653 65C325.13 65 320.653 60.523 320.653 55C320.653 49.477 325.13 45 330.653 45C336.176 45 340.653 49.477 340.653 55C340.653 60.523 336.176 65 330.653 65ZM330.653 63C332.775 63 334.81 62.1571 336.31 60.6569C337.81 59.1566 338.653 57.1217 338.653 55C338.653 52.8783 337.81 50.8434 336.31 49.3431C334.81 47.8429 332.775 47 330.653 47C328.532 47 326.497 47.8429 324.996 49.3431C323.496 50.8434 322.653 52.8783 322.653 55C322.653 57.1217 323.496 59.1566 324.996 60.6569C326.497 62.1571 328.532 63 330.653 63ZM329.653 58H331.653V60H329.653V58ZM331.653 56.355V57H329.653V55.5C329.653 55.2348 329.759 54.9804 329.946 54.7929C330.134 54.6054 330.388 54.5 330.653 54.5C330.937 54.5 331.216 54.4193 331.456 54.2673C331.696 54.1154 331.888 53.8984 332.009 53.6416C332.131 53.3848 332.177 53.0988 332.142 52.8168C332.107 52.5349 331.993 52.2686 331.813 52.0489C331.633 51.8292 331.394 51.6652 331.125 51.576C330.855 51.4867 330.565 51.4759 330.29 51.5447C330.014 51.6135 329.764 51.7592 329.568 51.9648C329.372 52.1704 329.238 52.4274 329.182 52.706L327.22 52.313C327.342 51.7051 327.623 51.1404 328.034 50.6766C328.446 50.2128 328.973 49.8666 329.562 49.6733C330.151 49.4801 330.781 49.4467 331.387 49.5766C331.993 49.7065 332.554 49.9951 333.012 50.4128C333.47 50.8305 333.809 51.3624 333.994 51.9541C334.18 52.5457 334.204 53.1759 334.066 53.7803C333.928 54.3847 333.632 54.9415 333.208 55.3939C332.784 55.8462 332.247 56.1779 331.653 56.355Z" fill="#1A191E"/>
<rect x="35.6533" y="99" width="147" height="77" rx="10" fill="#F8F8F8"/>
<path d="M85.1922 129V120.273H90.6638V121.406H86.509V124.065H90.3783V125.195H86.509V127.866H90.7149V129H85.1922ZM94.2252 129.145C93.8105 129.145 93.4355 129.068 93.1002 128.915C92.765 128.759 92.4994 128.533 92.3034 128.237C92.1102 127.942 92.0136 127.58 92.0136 127.151C92.0136 126.781 92.0846 126.477 92.2267 126.239C92.3687 126 92.5605 125.811 92.8019 125.672C93.0434 125.533 93.3133 125.428 93.6116 125.357C93.9099 125.286 94.2139 125.232 94.5235 125.195C94.9156 125.149 95.2338 125.112 95.4781 125.084C95.7224 125.053 95.8999 125.003 96.0107 124.935C96.1215 124.866 96.1769 124.756 96.1769 124.602V124.572C96.1769 124.2 96.0718 123.912 95.8616 123.707C95.6542 123.503 95.3445 123.401 94.9326 123.401C94.5036 123.401 94.1656 123.496 93.9184 123.686C93.6741 123.874 93.5051 124.082 93.4113 124.312L92.2139 124.04C92.3559 123.642 92.5633 123.321 92.836 123.077C93.1116 122.83 93.4284 122.651 93.7863 122.54C94.1443 122.426 94.5207 122.369 94.9156 122.369C95.1769 122.369 95.4539 122.401 95.7465 122.463C96.042 122.523 96.3176 122.634 96.5732 122.795C96.8318 122.957 97.0434 123.189 97.2082 123.49C97.373 123.788 97.4553 124.176 97.4553 124.653V129H96.211V128.105H96.1599C96.0775 128.27 95.9539 128.432 95.7892 128.591C95.6244 128.75 95.4127 128.882 95.1542 128.987C94.8957 129.092 94.586 129.145 94.2252 129.145ZM94.5022 128.122C94.8545 128.122 95.1556 128.053 95.4056 127.913C95.6585 127.774 95.8502 127.592 95.9809 127.368C96.1144 127.141 96.1812 126.898 96.1812 126.639V125.795C96.1357 125.841 96.0477 125.884 95.917 125.923C95.7892 125.96 95.6428 125.993 95.4781 126.021C95.3133 126.047 95.1528 126.071 94.9965 126.094C94.8403 126.114 94.7096 126.131 94.6045 126.145C94.3573 126.176 94.1315 126.229 93.9269 126.303C93.7252 126.376 93.5633 126.483 93.4411 126.622C93.3218 126.759 93.2622 126.94 93.2622 127.168C93.2622 127.483 93.3786 127.722 93.6116 127.884C93.8445 128.043 94.1414 128.122 94.5022 128.122ZM99.1524 129V122.455H100.384V123.494H100.452C100.571 123.142 100.782 122.865 101.083 122.663C101.387 122.459 101.731 122.357 102.114 122.357C102.194 122.357 102.287 122.359 102.395 122.365C102.506 122.371 102.593 122.378 102.655 122.386V123.605C102.604 123.591 102.513 123.575 102.383 123.558C102.252 123.538 102.121 123.528 101.991 123.528C101.689 123.528 101.421 123.592 101.185 123.72C100.952 123.845 100.767 124.02 100.631 124.244C100.495 124.466 100.427 124.719 100.427 125.003V129H99.1524ZM105.032 125.114V129H103.758V122.455H104.981V123.52H105.062C105.212 123.173 105.448 122.895 105.769 122.685C106.093 122.474 106.501 122.369 106.992 122.369C107.438 122.369 107.829 122.463 108.164 122.651C108.499 122.835 108.759 123.111 108.944 123.477C109.129 123.844 109.221 124.297 109.221 124.837V129H107.947V124.99C107.947 124.516 107.823 124.145 107.576 123.878C107.329 123.608 106.989 123.473 106.558 123.473C106.262 123.473 105.999 123.537 105.769 123.665C105.542 123.793 105.362 123.98 105.228 124.227C105.097 124.472 105.032 124.767 105.032 125.114ZM110.93 129V122.455H112.204V129H110.93ZM111.573 121.445C111.352 121.445 111.161 121.371 111.002 121.223C110.846 121.072 110.768 120.893 110.768 120.686C110.768 120.476 110.846 120.297 111.002 120.149C111.161 119.999 111.352 119.923 111.573 119.923C111.795 119.923 111.984 119.999 112.14 120.149C112.299 120.297 112.379 120.476 112.379 120.686C112.379 120.893 112.299 121.072 112.14 121.223C111.984 121.371 111.795 121.445 111.573 121.445ZM115.192 125.114V129H113.918V122.455H115.141V123.52H115.222C115.373 123.173 115.608 122.895 115.929 122.685C116.253 122.474 116.661 122.369 117.152 122.369C117.598 122.369 117.989 122.463 118.324 122.651C118.66 122.835 118.919 123.111 119.104 123.477C119.289 123.844 119.381 124.297 119.381 124.837V129H118.107V124.99C118.107 124.516 117.983 124.145 117.736 123.878C117.489 123.608 117.15 123.473 116.718 123.473C116.422 123.473 116.16 123.537 115.929 123.665C115.702 123.793 115.522 123.98 115.388 124.227C115.258 124.472 115.192 124.767 115.192 125.114ZM123.834 131.591C123.314 131.591 122.867 131.523 122.492 131.386C122.12 131.25 121.816 131.07 121.58 130.845C121.344 130.621 121.168 130.375 121.052 130.108L122.147 129.656C122.223 129.781 122.326 129.913 122.454 130.053C122.584 130.195 122.76 130.315 122.982 130.415C123.206 130.514 123.495 130.564 123.847 130.564C124.33 130.564 124.729 130.446 125.044 130.21C125.36 129.977 125.517 129.605 125.517 129.094V127.807H125.437C125.36 127.946 125.249 128.101 125.104 128.271C124.962 128.442 124.766 128.589 124.516 128.714C124.266 128.839 123.941 128.902 123.54 128.902C123.023 128.902 122.557 128.781 122.142 128.54C121.731 128.295 121.404 127.936 121.162 127.462C120.924 126.984 120.804 126.398 120.804 125.702C120.804 125.006 120.922 124.409 121.158 123.912C121.397 123.415 121.723 123.034 122.138 122.77C122.553 122.503 123.023 122.369 123.549 122.369C123.955 122.369 124.283 122.438 124.533 122.574C124.783 122.707 124.978 122.864 125.117 123.043C125.259 123.222 125.368 123.379 125.445 123.516H125.539V122.455H126.787V129.145C126.787 129.707 126.657 130.169 126.395 130.53C126.134 130.891 125.78 131.158 125.334 131.331C124.891 131.504 124.391 131.591 123.834 131.591ZM123.821 127.845C124.188 127.845 124.498 127.76 124.75 127.589C125.006 127.416 125.199 127.169 125.33 126.848C125.464 126.524 125.53 126.136 125.53 125.685C125.53 125.244 125.465 124.857 125.334 124.521C125.204 124.186 125.012 123.925 124.759 123.737C124.506 123.547 124.194 123.452 123.821 123.452C123.438 123.452 123.118 123.551 122.863 123.75C122.607 123.946 122.414 124.213 122.283 124.551C122.155 124.889 122.091 125.267 122.091 125.685C122.091 126.114 122.157 126.49 122.287 126.814C122.418 127.138 122.611 127.391 122.867 127.572C123.125 127.754 123.444 127.845 123.821 127.845ZM133.401 124.053L132.246 124.257C132.198 124.109 132.121 123.969 132.016 123.835C131.914 123.702 131.775 123.592 131.598 123.507C131.422 123.422 131.202 123.379 130.938 123.379C130.577 123.379 130.276 123.46 130.035 123.622C129.793 123.781 129.672 123.987 129.672 124.24C129.672 124.459 129.753 124.635 129.915 124.768C130.077 124.902 130.339 125.011 130.699 125.097L131.739 125.335C132.341 125.474 132.79 125.689 133.086 125.979C133.381 126.268 133.529 126.645 133.529 127.108C133.529 127.5 133.415 127.849 133.188 128.156C132.964 128.46 132.65 128.699 132.246 128.872C131.846 129.045 131.381 129.132 130.853 129.132C130.12 129.132 129.522 128.976 129.059 128.663C128.596 128.348 128.312 127.901 128.206 127.321L129.438 127.134C129.515 127.455 129.672 127.697 129.911 127.862C130.15 128.024 130.461 128.105 130.844 128.105C131.262 128.105 131.596 128.018 131.846 127.845C132.096 127.669 132.221 127.455 132.221 127.202C132.221 126.997 132.144 126.825 131.991 126.686C131.84 126.547 131.608 126.442 131.296 126.371L130.188 126.128C129.577 125.989 129.125 125.767 128.833 125.463C128.543 125.159 128.398 124.774 128.398 124.308C128.398 123.922 128.506 123.584 128.722 123.294C128.938 123.004 129.236 122.778 129.617 122.616C129.998 122.452 130.434 122.369 130.925 122.369C131.633 122.369 132.189 122.523 132.596 122.83C133.002 123.134 133.27 123.541 133.401 124.053Z" fill="#1A191E"/>
<path d="M60.8533 156.74V155.2C59.5467 155.053 58.5 154.593 57.7133 153.82C56.9267 153.047 56.5267 152.033 56.5133 150.78H58.7533C58.7667 151.407 58.9533 151.96 59.3133 152.44C59.6733 152.907 60.1867 153.22 60.8533 153.38V148.56C60.7467 148.533 60.6333 148.5 60.5133 148.46C60.4067 148.42 60.2933 148.38 60.1733 148.34C59.0933 147.98 58.28 147.513 57.7333 146.94C57.2 146.367 56.9333 145.613 56.9333 144.68C56.92 143.587 57.2733 142.693 57.9933 142C58.7133 141.307 59.6667 140.9 60.8533 140.78V139.18H62.2133V140.8C63.3733 140.933 64.3067 141.353 65.0133 142.06C65.72 142.767 66.08 143.653 66.0933 144.72H63.8533C63.84 144.28 63.6933 143.867 63.4133 143.48C63.1467 143.08 62.7467 142.807 62.2133 142.66V146.94C62.32 146.98 62.4267 147.02 62.5333 147.06C62.64 147.087 62.7467 147.12 62.8533 147.16C63.5467 147.387 64.1667 147.66 64.7133 147.98C65.26 148.3 65.6933 148.72 66.0133 149.24C66.3467 149.76 66.5133 150.42 66.5133 151.22C66.5133 151.887 66.3533 152.513 66.0333 153.1C65.7133 153.673 65.2333 154.153 64.5933 154.54C63.9533 154.927 63.16 155.153 62.2133 155.22V156.74H60.8533ZM59.1333 144.5C59.1333 145.033 59.2867 145.447 59.5933 145.74C59.9 146.02 60.32 146.267 60.8533 146.48V142.6C60.3467 142.693 59.9333 142.907 59.6133 143.24C59.2933 143.56 59.1333 143.98 59.1333 144.5ZM64.2733 151.36C64.2733 150.707 64.08 150.213 63.6933 149.88C63.3067 149.533 62.8133 149.247 62.2133 149.02V153.42C62.8667 153.34 63.3733 153.113 63.7333 152.74C64.0933 152.367 64.2733 151.907 64.2733 151.36ZM77.4502 155.24C76.5169 155.24 75.6702 155.073 74.9102 154.74C74.1635 154.393 73.5635 153.913 73.1102 153.3C72.6702 152.687 72.4502 151.967 72.4502 151.14C72.4502 150.3 72.6835 149.547 73.1502 148.88C73.6302 148.213 74.2635 147.76 75.0502 147.52C74.3435 147.24 73.7969 146.833 73.4102 146.3C73.0235 145.753 72.8302 145.153 72.8302 144.5C72.8302 143.82 73.0102 143.2 73.3702 142.64C73.7302 142.067 74.2502 141.613 74.9302 141.28C75.6235 140.933 76.4635 140.76 77.4502 140.76C78.4369 140.76 79.2702 140.933 79.9502 141.28C80.6435 141.613 81.1702 142.067 81.5302 142.64C81.8902 143.2 82.0702 143.82 82.0702 144.5C82.0702 145.14 81.8702 145.74 81.4702 146.3C81.0835 146.847 80.5369 147.253 79.8302 147.52C80.6169 147.773 81.2435 148.233 81.7102 148.9C82.1902 149.553 82.4302 150.3 82.4302 151.14C82.4302 151.967 82.2102 152.687 81.7702 153.3C81.3302 153.913 80.7302 154.393 79.9702 154.74C79.2235 155.073 78.3835 155.24 77.4502 155.24ZM77.4502 146.84C78.2235 146.84 78.8302 146.64 79.2702 146.24C79.7235 145.84 79.9502 145.327 79.9502 144.7C79.9502 143.993 79.7302 143.453 79.2902 143.08C78.8502 142.707 78.2369 142.52 77.4502 142.52C76.6635 142.52 76.0502 142.707 75.6102 143.08C75.1702 143.453 74.9502 143.993 74.9502 144.7C74.9502 145.327 75.1702 145.84 75.6102 146.24C76.0502 146.64 76.6635 146.84 77.4502 146.84ZM77.4502 153.44C78.4102 153.44 79.1302 153.213 79.6102 152.76C80.0902 152.293 80.3302 151.7 80.3302 150.98C80.3302 150.18 80.0702 149.567 79.5502 149.14C79.0435 148.7 78.3435 148.48 77.4502 148.48C76.5569 148.48 75.8502 148.7 75.3302 149.14C74.8102 149.567 74.5502 150.18 74.5502 150.98C74.5502 151.7 74.7902 152.293 75.2702 152.76C75.7635 153.213 76.4902 153.44 77.4502 153.44ZM89.3525 155.24C88.3659 155.24 87.5125 155.067 86.7925 154.72C86.0725 154.36 85.4992 153.873 85.0725 153.26C84.6592 152.633 84.4059 151.927 84.3125 151.14H86.3925C86.5259 151.807 86.8592 152.36 87.3925 152.8C87.9259 153.227 88.5859 153.44 89.3725 153.44C89.9592 153.44 90.4659 153.3 90.8925 153.02C91.3192 152.727 91.6525 152.34 91.8925 151.86C92.1325 151.38 92.2525 150.84 92.2525 150.24C92.2525 149.293 91.9859 148.54 91.4525 147.98C90.9192 147.407 90.2459 147.12 89.4325 147.12C88.7392 147.12 88.1459 147.287 87.6525 147.62C87.1592 147.94 86.7992 148.347 86.5725 148.84H84.5525L85.7525 141H93.3125V142.86H87.3525L86.6325 146.6C86.9392 146.253 87.3592 145.967 87.8925 145.74C88.4392 145.5 89.0525 145.38 89.7325 145.38C90.6792 145.38 91.4925 145.6 92.1725 146.04C92.8525 146.467 93.3725 147.047 93.7325 147.78C94.1059 148.513 94.2925 149.327 94.2925 150.22C94.2925 151.153 94.0925 152 93.6925 152.76C93.2925 153.52 92.7192 154.127 91.9725 154.58C91.2392 155.02 90.3659 155.24 89.3525 155.24ZM96.9568 155.12C96.5568 155.12 96.2234 154.993 95.9568 154.74C95.7034 154.473 95.5768 154.16 95.5768 153.8C95.5768 153.427 95.7034 153.113 95.9568 152.86C96.2234 152.593 96.5568 152.46 96.9568 152.46C97.3568 152.46 97.6834 152.593 97.9368 152.86C98.1901 153.113 98.3168 153.427 98.3168 153.8C98.3168 154.16 98.1901 154.473 97.9368 154.74C97.6834 154.993 97.3568 155.12 96.9568 155.12ZM99.6527 155V153.48C100.559 152.76 101.426 152.033 102.253 151.3C103.079 150.567 103.813 149.847 104.453 149.14C105.106 148.42 105.619 147.72 105.993 147.04C106.366 146.347 106.553 145.68 106.553 145.04C106.553 144.613 106.479 144.213 106.333 143.84C106.186 143.453 105.946 143.147 105.613 142.92C105.279 142.68 104.833 142.56 104.273 142.56C103.433 142.56 102.799 142.827 102.373 143.36C101.959 143.893 101.759 144.533 101.773 145.28H99.7127C99.726 144.293 99.9327 143.467 100.333 142.8C100.746 142.133 101.293 141.627 101.973 141.28C102.666 140.933 103.446 140.76 104.313 140.76C105.633 140.76 106.686 141.133 107.473 141.88C108.273 142.613 108.673 143.64 108.673 144.96C108.673 145.747 108.479 146.527 108.093 147.3C107.719 148.073 107.226 148.82 106.613 149.54C106.013 150.247 105.366 150.913 104.673 151.54C103.979 152.167 103.319 152.733 102.693 153.24H109.093V155H99.6527ZM110.498 155V153.48C111.405 152.76 112.271 152.033 113.098 151.3C113.925 150.567 114.658 149.847 115.298 149.14C115.951 148.42 116.465 147.72 116.838 147.04C117.211 146.347 117.398 145.68 117.398 145.04C117.398 144.613 117.325 144.213 117.178 143.84C117.031 143.453 116.791 143.147 116.458 142.92C116.125 142.68 115.678 142.56 115.118 142.56C114.278 142.56 113.645 142.827 113.218 143.36C112.805 143.893 112.605 144.533 112.618 145.28H110.558C110.571 144.293 110.778 143.467 111.178 142.8C111.591 142.133 112.138 141.627 112.818 141.28C113.511 140.933 114.291 140.76 115.158 140.76C116.478 140.76 117.531 141.133 118.318 141.88C119.118 142.613 119.518 143.64 119.518 144.96C119.518 145.747 119.325 146.527 118.938 147.3C118.565 148.073 118.071 148.82 117.458 149.54C116.858 150.247 116.211 150.913 115.518 151.54C114.825 152.167 114.165 152.733 113.538 153.24H119.938V155H110.498ZM121.343 155V153.48C122.25 152.76 123.117 152.033 123.943 151.3C124.77 150.567 125.503 149.847 126.143 149.14C126.797 148.42 127.31 147.72 127.683 147.04C128.057 146.347 128.243 145.68 128.243 145.04C128.243 144.613 128.17 144.213 128.023 143.84C127.877 143.453 127.637 143.147 127.303 142.92C126.97 142.68 126.523 142.56 125.963 142.56C125.123 142.56 124.49 142.827 124.063 143.36C123.65 143.893 123.45 144.533 123.463 145.28H121.403C121.417 144.293 121.623 143.467 122.023 142.8C122.437 142.133 122.983 141.627 123.663 141.28C124.357 140.933 125.137 140.76 126.003 140.76C127.323 140.76 128.377 141.133 129.163 141.88C129.963 142.613 130.363 143.64 130.363 144.96C130.363 145.747 130.17 146.527 129.783 147.3C129.41 148.073 128.917 148.82 128.303 149.54C127.703 150.247 127.057 150.913 126.363 151.54C125.67 152.167 125.01 152.733 124.383 153.24H130.783V155H121.343ZM131.209 157.36L132.369 152.64H134.469L132.629 157.36H131.209ZM141.551 155.24C140.284 155.24 139.191 154.94 138.271 154.34C137.364 153.727 136.664 152.88 136.171 151.8C135.691 150.707 135.451 149.44 135.451 148C135.451 146.56 135.691 145.3 136.171 144.22C136.664 143.127 137.364 142.28 138.271 141.68C139.191 141.067 140.284 140.76 141.551 140.76C142.817 140.76 143.904 141.067 144.811 141.68C145.717 142.28 146.411 143.127 146.891 144.22C147.384 145.3 147.631 146.56 147.631 148C147.631 149.44 147.384 150.707 146.891 151.8C146.411 152.88 145.717 153.727 144.811 154.34C143.904 154.94 142.817 155.24 141.551 155.24ZM141.551 153.34C142.311 153.34 142.984 153.127 143.571 152.7C144.171 152.273 144.637 151.66 144.971 150.86C145.304 150.06 145.471 149.107 145.471 148C145.471 146.893 145.304 145.94 144.971 145.14C144.637 144.34 144.171 143.727 143.571 143.3C142.984 142.873 142.311 142.66 141.551 142.66C140.777 142.66 140.097 142.873 139.511 143.3C138.924 143.727 138.464 144.34 138.131 145.14C137.797 145.94 137.631 146.893 137.631 148C137.631 149.107 137.797 150.06 138.131 150.86C138.464 151.66 138.924 152.273 139.511 152.7C140.097 153.127 140.777 153.34 141.551 153.34ZM154.994 155.24C153.727 155.24 152.634 154.94 151.714 154.34C150.807 153.727 150.107 152.88 149.614 151.8C149.134 150.707 148.894 149.44 148.894 148C148.894 146.56 149.134 145.3 149.614 144.22C150.107 143.127 150.807 142.28 151.714 141.68C152.634 141.067 153.727 140.76 154.994 140.76C156.26 140.76 157.347 141.067 158.254 141.68C159.16 142.28 159.854 143.127 160.334 144.22C160.827 145.3 161.074 146.56 161.074 148C161.074 149.44 160.827 150.707 160.334 151.8C159.854 152.88 159.16 153.727 158.254 154.34C157.347 154.94 156.26 155.24 154.994 155.24ZM154.994 153.34C155.754 153.34 156.427 153.127 157.014 152.7C157.614 152.273 158.08 151.66 158.414 150.86C158.747 150.06 158.914 149.107 158.914 148C158.914 146.893 158.747 145.94 158.414 145.14C158.08 144.34 157.614 143.727 157.014 143.3C156.427 142.873 155.754 142.66 154.994 142.66C154.22 142.66 153.54 142.873 152.954 143.3C152.367 143.727 151.907 144.34 151.574 145.14C151.24 145.94 151.074 146.893 151.074 148C151.074 149.107 151.24 150.06 151.574 150.86C151.907 151.66 152.367 152.273 152.954 152.7C153.54 153.127 154.22 153.34 154.994 153.34Z" fill="#1A191E"/>
<rect x="198.653" y="99" width="147" height="77" rx="10" fill="#F8F8F8"/>
<path d="M245.427 129V120.273H250.898V121.406H246.743V124.065H250.613V125.195H246.743V127.866H250.949V129H245.427ZM253.56 122.455L255.005 125.003L256.462 122.455H257.856L255.815 125.727L257.873 129H256.479L255.005 126.554L253.535 129H252.137L254.174 125.727L252.163 122.455H253.56ZM259.164 131.455V122.455H260.408V123.516H260.515C260.589 123.379 260.695 123.222 260.835 123.043C260.974 122.864 261.167 122.707 261.414 122.574C261.661 122.438 261.988 122.369 262.394 122.369C262.923 122.369 263.394 122.503 263.809 122.77C264.224 123.037 264.549 123.422 264.785 123.925C265.024 124.428 265.143 125.033 265.143 125.74C265.143 126.447 265.025 127.054 264.789 127.56C264.553 128.062 264.229 128.45 263.818 128.723C263.406 128.993 262.935 129.128 262.407 129.128C262.009 129.128 261.684 129.061 261.431 128.928C261.181 128.794 260.985 128.638 260.843 128.459C260.701 128.28 260.592 128.121 260.515 127.982H260.438V131.455H259.164ZM260.413 125.727C260.413 126.187 260.479 126.591 260.613 126.938C260.747 127.284 260.94 127.555 261.193 127.751C261.445 127.945 261.755 128.041 262.122 128.041C262.502 128.041 262.82 127.94 263.076 127.739C263.332 127.534 263.525 127.257 263.656 126.908C263.789 126.558 263.856 126.165 263.856 125.727C263.856 125.295 263.791 124.908 263.66 124.564C263.532 124.22 263.339 123.949 263.08 123.75C262.825 123.551 262.505 123.452 262.122 123.452C261.752 123.452 261.44 123.547 261.184 123.737C260.931 123.928 260.739 124.193 260.609 124.534C260.478 124.875 260.413 125.273 260.413 125.727ZM269.391 129.132C268.747 129.132 268.191 128.994 267.725 128.719C267.262 128.44 266.904 128.05 266.651 127.547C266.401 127.041 266.276 126.449 266.276 125.77C266.276 125.099 266.401 124.509 266.651 123.997C266.904 123.486 267.256 123.087 267.708 122.8C268.163 122.513 268.694 122.369 269.302 122.369C269.671 122.369 270.029 122.43 270.376 122.553C270.722 122.675 271.033 122.866 271.309 123.128C271.585 123.389 271.802 123.729 271.961 124.146C272.12 124.561 272.2 125.065 272.2 125.659V126.111H266.997V125.156H270.951C270.951 124.821 270.883 124.524 270.747 124.266C270.61 124.004 270.418 123.798 270.171 123.648C269.927 123.497 269.64 123.422 269.31 123.422C268.953 123.422 268.64 123.51 268.373 123.686C268.109 123.859 267.904 124.087 267.759 124.368C267.617 124.646 267.546 124.949 267.546 125.276V126.021C267.546 126.459 267.623 126.831 267.776 127.138C267.933 127.445 268.15 127.679 268.428 127.841C268.707 128 269.032 128.08 269.404 128.08C269.646 128.08 269.866 128.045 270.065 127.977C270.264 127.906 270.435 127.801 270.58 127.662C270.725 127.523 270.836 127.351 270.913 127.146L272.119 127.364C272.022 127.719 271.849 128.03 271.599 128.297C271.352 128.561 271.041 128.767 270.666 128.915C270.293 129.06 269.869 129.132 269.391 129.132ZM274.888 125.114V129H273.613V122.455H274.836V123.52H274.917C275.068 123.173 275.304 122.895 275.625 122.685C275.949 122.474 276.356 122.369 276.848 122.369C277.294 122.369 277.684 122.463 278.02 122.651C278.355 122.835 278.615 123.111 278.799 123.477C278.984 123.844 279.076 124.297 279.076 124.837V129H277.802V124.99C277.802 124.516 277.679 124.145 277.432 123.878C277.184 123.608 276.845 123.473 276.413 123.473C276.118 123.473 275.855 123.537 275.625 123.665C275.397 123.793 275.217 123.98 275.084 124.227C274.953 124.472 274.888 124.767 274.888 125.114ZM285.69 124.053L284.535 124.257C284.487 124.109 284.41 123.969 284.305 123.835C284.203 123.702 284.064 123.592 283.888 123.507C283.711 123.422 283.491 123.379 283.227 123.379C282.866 123.379 282.565 123.46 282.324 123.622C282.082 123.781 281.961 123.987 281.961 124.24C281.961 124.459 282.042 124.635 282.204 124.768C282.366 124.902 282.628 125.011 282.988 125.097L284.028 125.335C284.63 125.474 285.079 125.689 285.375 125.979C285.67 126.268 285.818 126.645 285.818 127.108C285.818 127.5 285.704 127.849 285.477 128.156C285.253 128.46 284.939 128.699 284.535 128.872C284.135 129.045 283.67 129.132 283.142 129.132C282.409 129.132 281.811 128.976 281.348 128.663C280.885 128.348 280.601 127.901 280.495 127.321L281.727 127.134C281.804 127.455 281.961 127.697 282.2 127.862C282.439 128.024 282.75 128.105 283.133 128.105C283.551 128.105 283.885 128.018 284.135 127.845C284.385 127.669 284.51 127.455 284.51 127.202C284.51 126.997 284.433 126.825 284.28 126.686C284.129 126.547 283.897 126.442 283.585 126.371L282.477 126.128C281.866 125.989 281.415 125.767 281.122 125.463C280.832 125.159 280.687 124.774 280.687 124.308C280.687 123.922 280.795 123.584 281.011 123.294C281.227 123.004 281.525 122.778 281.906 122.616C282.287 122.452 282.723 122.369 283.214 122.369C283.922 122.369 284.478 122.523 284.885 122.83C285.291 123.134 285.559 123.541 285.69 124.053ZM290.04 129.132C289.395 129.132 288.84 128.994 288.374 128.719C287.911 128.44 287.553 128.05 287.3 127.547C287.05 127.041 286.925 126.449 286.925 125.77C286.925 125.099 287.05 124.509 287.3 123.997C287.553 123.486 287.905 123.087 288.357 122.8C288.811 122.513 289.342 122.369 289.95 122.369C290.32 122.369 290.678 122.43 291.024 122.553C291.371 122.675 291.682 122.866 291.957 123.128C292.233 123.389 292.45 123.729 292.609 124.146C292.769 124.561 292.848 125.065 292.848 125.659V126.111H287.645V125.156H291.6C291.6 124.821 291.531 124.524 291.395 124.266C291.259 124.004 291.067 123.798 290.82 123.648C290.575 123.497 290.288 123.422 289.959 123.422C289.601 123.422 289.288 123.51 289.021 123.686C288.757 123.859 288.553 124.087 288.408 124.368C288.266 124.646 288.195 124.949 288.195 125.276V126.021C288.195 126.459 288.271 126.831 288.425 127.138C288.581 127.445 288.798 127.679 289.077 127.841C289.355 128 289.68 128.08 290.053 128.08C290.294 128.08 290.514 128.045 290.713 127.977C290.912 127.906 291.084 127.801 291.229 127.662C291.374 127.523 291.484 127.351 291.561 127.146L292.767 127.364C292.671 127.719 292.497 128.03 292.247 128.297C292 128.561 291.689 128.767 291.314 128.915C290.942 129.06 290.517 129.132 290.04 129.132ZM299.167 124.053L298.012 124.257C297.964 124.109 297.887 123.969 297.782 123.835C297.679 123.702 297.54 123.592 297.364 123.507C297.188 123.422 296.968 123.379 296.704 123.379C296.343 123.379 296.042 123.46 295.8 123.622C295.559 123.781 295.438 123.987 295.438 124.24C295.438 124.459 295.519 124.635 295.681 124.768C295.843 124.902 296.104 125.011 296.465 125.097L297.505 125.335C298.107 125.474 298.556 125.689 298.851 125.979C299.147 126.268 299.294 126.645 299.294 127.108C299.294 127.5 299.181 127.849 298.954 128.156C298.729 128.46 298.415 128.699 298.012 128.872C297.611 129.045 297.147 129.132 296.618 129.132C295.885 129.132 295.287 128.976 294.824 128.663C294.361 128.348 294.077 127.901 293.972 127.321L295.204 127.134C295.28 127.455 295.438 127.697 295.677 127.862C295.915 128.024 296.226 128.105 296.61 128.105C297.027 128.105 297.361 128.018 297.611 127.845C297.861 127.669 297.986 127.455 297.986 127.202C297.986 126.997 297.91 126.825 297.756 126.686C297.606 126.547 297.374 126.442 297.062 126.371L295.954 126.128C295.343 125.989 294.891 125.767 294.598 125.463C294.309 125.159 294.164 124.774 294.164 124.308C294.164 123.922 294.272 123.584 294.488 123.294C294.704 123.004 295.002 122.778 295.383 122.616C295.763 122.452 296.199 122.369 296.691 122.369C297.398 122.369 297.955 122.523 298.361 122.83C298.767 123.134 299.036 123.541 299.167 124.053Z" fill="#1A191E"/>
<path d="M217.793 150.08V148.3H225.933V150.08H217.793ZM236.083 156.74V155.2C234.776 155.053 233.73 154.593 232.943 153.82C232.156 153.047 231.756 152.033 231.743 150.78H233.983C233.996 151.407 234.183 151.96 234.543 152.44C234.903 152.907 235.416 153.22 236.083 153.38V148.56C235.976 148.533 235.863 148.5 235.743 148.46C235.636 148.42 235.523 148.38 235.403 148.34C234.323 147.98 233.51 147.513 232.963 146.94C232.43 146.367 232.163 145.613 232.163 144.68C232.15 143.587 232.503 142.693 233.223 142C233.943 141.307 234.896 140.9 236.083 140.78V139.18H237.443V140.8C238.603 140.933 239.536 141.353 240.243 142.06C240.95 142.767 241.31 143.653 241.323 144.72H239.083C239.07 144.28 238.923 143.867 238.643 143.48C238.376 143.08 237.976 142.807 237.443 142.66V146.94C237.55 146.98 237.656 147.02 237.763 147.06C237.87 147.087 237.976 147.12 238.083 147.16C238.776 147.387 239.396 147.66 239.943 147.98C240.49 148.3 240.923 148.72 241.243 149.24C241.576 149.76 241.743 150.42 241.743 151.22C241.743 151.887 241.583 152.513 241.263 153.1C240.943 153.673 240.463 154.153 239.823 154.54C239.183 154.927 238.39 155.153 237.443 155.22V156.74H236.083ZM234.363 144.5C234.363 145.033 234.516 145.447 234.823 145.74C235.13 146.02 235.55 146.267 236.083 146.48V142.6C235.576 142.693 235.163 142.907 234.843 143.24C234.523 143.56 234.363 143.98 234.363 144.5ZM239.503 151.36C239.503 150.707 239.31 150.213 238.923 149.88C238.536 149.533 238.043 149.247 237.443 149.02V153.42C238.096 153.34 238.603 153.113 238.963 152.74C239.323 152.367 239.503 151.907 239.503 151.36ZM248.341 155.24C247.354 155.24 246.501 155.067 245.781 154.72C245.061 154.36 244.487 153.873 244.061 153.26C243.647 152.633 243.394 151.927 243.301 151.14H245.381C245.514 151.807 245.847 152.36 246.381 152.8C246.914 153.227 247.574 153.44 248.361 153.44C248.947 153.44 249.454 153.3 249.881 153.02C250.307 152.727 250.641 152.34 250.881 151.86C251.121 151.38 251.241 150.84 251.241 150.24C251.241 149.293 250.974 148.54 250.441 147.98C249.907 147.407 249.234 147.12 248.421 147.12C247.727 147.12 247.134 147.287 246.641 147.62C246.147 147.94 245.787 148.347 245.561 148.84H243.541L244.741 141H252.301V142.86H246.341L245.621 146.6C245.927 146.253 246.347 145.967 246.881 145.74C247.427 145.5 248.041 145.38 248.721 145.38C249.667 145.38 250.481 145.6 251.161 146.04C251.841 146.467 252.361 147.047 252.721 147.78C253.094 148.513 253.281 149.327 253.281 150.22C253.281 151.153 253.081 152 252.681 152.76C252.281 153.52 251.707 154.127 250.961 154.58C250.227 155.02 249.354 155.24 248.341 155.24ZM254.651 155V153.48C255.558 152.76 256.424 152.033 257.251 151.3C258.078 150.567 258.811 149.847 259.451 149.14C260.104 148.42 260.618 147.72 260.991 147.04C261.364 146.347 261.551 145.68 261.551 145.04C261.551 144.613 261.478 144.213 261.331 143.84C261.184 143.453 260.944 143.147 260.611 142.92C260.278 142.68 259.831 142.56 259.271 142.56C258.431 142.56 257.798 142.827 257.371 143.36C256.958 143.893 256.758 144.533 256.771 145.28H254.711C254.724 144.293 254.931 143.467 255.331 142.8C255.744 142.133 256.291 141.627 256.971 141.28C257.664 140.933 258.444 140.76 259.311 140.76C260.631 140.76 261.684 141.133 262.471 141.88C263.271 142.613 263.671 143.64 263.671 144.96C263.671 145.747 263.478 146.527 263.091 147.3C262.718 148.073 262.224 148.82 261.611 149.54C261.011 150.247 260.364 150.913 259.671 151.54C258.978 152.167 258.318 152.733 257.691 153.24H264.091V155H254.651ZM266.536 155.12C266.136 155.12 265.803 154.993 265.536 154.74C265.283 154.473 265.156 154.16 265.156 153.8C265.156 153.427 265.283 153.113 265.536 152.86C265.803 152.593 266.136 152.46 266.536 152.46C266.936 152.46 267.263 152.593 267.516 152.86C267.77 153.113 267.896 153.427 267.896 153.8C267.896 154.16 267.77 154.473 267.516 154.74C267.263 154.993 266.936 155.12 266.536 155.12ZM270.406 155V143.4L268.146 143.92V142.36L271.246 141H272.606V155H270.406ZM279.73 155.24C278.743 155.24 277.89 155.067 277.17 154.72C276.45 154.36 275.877 153.873 275.45 153.26C275.037 152.633 274.783 151.927 274.69 151.14H276.77C276.903 151.807 277.237 152.36 277.77 152.8C278.303 153.227 278.963 153.44 279.75 153.44C280.337 153.44 280.843 153.3 281.27 153.02C281.697 152.727 282.03 152.34 282.27 151.86C282.51 151.38 282.63 150.84 282.63 150.24C282.63 149.293 282.363 148.54 281.83 147.98C281.297 147.407 280.623 147.12 279.81 147.12C279.117 147.12 278.523 147.287 278.03 147.62C277.537 147.94 277.177 148.347 276.95 148.84H274.93L276.13 141H283.69V142.86H277.73L277.01 146.6C277.317 146.253 277.737 145.967 278.27 145.74C278.817 145.5 279.43 145.38 280.11 145.38C281.057 145.38 281.87 145.6 282.55 146.04C283.23 146.467 283.75 147.047 284.11 147.78C284.483 148.513 284.67 149.327 284.67 150.22C284.67 151.153 284.47 152 284.07 152.76C283.67 153.52 283.097 154.127 282.35 154.58C281.617 155.02 280.743 155.24 279.73 155.24ZM292.174 155.24C290.907 155.24 289.814 154.94 288.894 154.34C287.987 153.727 287.287 152.88 286.794 151.8C286.314 150.707 286.074 149.44 286.074 148C286.074 146.56 286.314 145.3 286.794 144.22C287.287 143.127 287.987 142.28 288.894 141.68C289.814 141.067 290.907 140.76 292.174 140.76C293.441 140.76 294.527 141.067 295.434 141.68C296.341 142.28 297.034 143.127 297.514 144.22C298.007 145.3 298.254 146.56 298.254 148C298.254 149.44 298.007 150.707 297.514 151.8C297.034 152.88 296.341 153.727 295.434 154.34C294.527 154.94 293.441 155.24 292.174 155.24ZM292.174 153.34C292.934 153.34 293.607 153.127 294.194 152.7C294.794 152.273 295.261 151.66 295.594 150.86C295.927 150.06 296.094 149.107 296.094 148C296.094 146.893 295.927 145.94 295.594 145.14C295.261 144.34 294.794 143.727 294.194 143.3C293.607 142.873 292.934 142.66 292.174 142.66C291.401 142.66 290.721 142.873 290.134 143.3C289.547 143.727 289.087 144.34 288.754 145.14C288.421 145.94 288.254 146.893 288.254 148C288.254 149.107 288.421 150.06 288.754 150.86C289.087 151.66 289.547 152.273 290.134 152.7C290.721 153.127 291.401 153.34 292.174 153.34ZM298.152 157.36L299.312 152.64H301.412L299.572 157.36H298.152ZM307.774 155.24C306.787 155.24 305.934 155.067 305.214 154.72C304.494 154.36 303.92 153.873 303.494 153.26C303.08 152.633 302.827 151.927 302.734 151.14H304.814C304.947 151.807 305.28 152.36 305.814 152.8C306.347 153.227 307.007 153.44 307.794 153.44C308.38 153.44 308.887 153.3 309.314 153.02C309.74 152.727 310.074 152.34 310.314 151.86C310.554 151.38 310.674 150.84 310.674 150.24C310.674 149.293 310.407 148.54 309.874 147.98C309.34 147.407 308.667 147.12 307.854 147.12C307.16 147.12 306.567 147.287 306.074 147.62C305.58 147.94 305.22 148.347 304.994 148.84H302.974L304.174 141H311.734V142.86H305.774L305.054 146.6C305.36 146.253 305.78 145.967 306.314 145.74C306.86 145.5 307.474 145.38 308.154 145.38C309.1 145.38 309.914 145.6 310.594 146.04C311.274 146.467 311.794 147.047 312.154 147.78C312.527 148.513 312.714 149.327 312.714 150.22C312.714 151.153 312.514 152 312.114 152.76C311.714 153.52 311.14 154.127 310.394 154.58C309.66 155.02 308.787 155.24 307.774 155.24ZM320.218 155.24C318.951 155.24 317.858 154.94 316.938 154.34C316.031 153.727 315.331 152.88 314.838 151.8C314.358 150.707 314.118 149.44 314.118 148C314.118 146.56 314.358 145.3 314.838 144.22C315.331 143.127 316.031 142.28 316.938 141.68C317.858 141.067 318.951 140.76 320.218 140.76C321.485 140.76 322.571 141.067 323.478 141.68C324.385 142.28 325.078 143.127 325.558 144.22C326.051 145.3 326.298 146.56 326.298 148C326.298 149.44 326.051 150.707 325.558 151.8C325.078 152.88 324.385 153.727 323.478 154.34C322.571 154.94 321.485 155.24 320.218 155.24ZM320.218 153.34C320.978 153.34 321.651 153.127 322.238 152.7C322.838 152.273 323.305 151.66 323.638 150.86C323.971 150.06 324.138 149.107 324.138 148C324.138 146.893 323.971 145.94 323.638 145.14C323.305 144.34 322.838 143.727 322.238 143.3C321.651 142.873 320.978 142.66 320.218 142.66C319.445 142.66 318.765 142.873 318.178 143.3C317.591 143.727 317.131 144.34 316.798 145.14C316.465 145.94 316.298 146.893 316.298 148C316.298 149.107 316.465 150.06 316.798 150.86C317.131 151.66 317.591 152.273 318.178 152.7C318.765 153.127 319.445 153.34 320.218 153.34Z" fill="#1A191E"/>
<rect width="12" height="12" rx="6" transform="matrix(0.999985 0.0054928 -0.0163752 0.999866 35.8883 203.968)" fill="#5BB5A2"/>
<path d="M56.733 214.5L56.828 205.773H62.2996L62.2873 206.906H58.1324L58.1035 209.565H61.9728L61.9605 210.695H58.0912L58.0621 213.366H62.2681L62.2557 214.5H56.733ZM65.7645 214.645C65.3497 214.645 64.9755 214.568 64.642 214.414C64.3084 214.258 64.0453 214.032 63.8525 213.737C63.6625 213.442 63.5699 213.079 63.5745 212.65C63.5785 212.281 63.6529 211.977 63.7975 211.739C63.9422 211.5 64.136 211.311 64.379 211.172C64.622 211.033 64.893 210.927 65.1921 210.856C65.4911 210.785 65.7957 210.731 66.1058 210.695C66.4983 210.649 66.8169 210.612 67.0615 210.584C67.3062 210.553 67.4843 210.503 67.5958 210.435C67.7073 210.366 67.7639 210.256 67.7656 210.102L67.7659 210.072C67.77 209.7 67.668 209.412 67.46 209.207C67.2548 209.003 66.9463 208.901 66.5344 208.901C66.1054 208.901 65.7663 208.996 65.5171 209.186C65.2707 209.374 65.0994 209.582 65.0031 209.812L63.8087 209.54C63.955 209.142 64.1659 208.821 64.4413 208.577C64.7196 208.33 65.0383 208.151 65.3974 208.04C65.7566 207.926 66.1337 207.869 66.5285 207.869C66.7899 207.869 67.0666 207.901 67.3585 207.963C67.6533 208.023 67.9277 208.134 68.1816 208.296C68.4383 208.457 68.6475 208.689 68.809 208.99C68.9705 209.288 69.0487 209.676 69.0435 210.153L68.9962 214.5H67.7518L67.7616 213.605H67.7104C67.6263 213.77 67.5009 213.932 67.3344 214.091C67.1679 214.25 66.9548 214.382 66.6952 214.487C66.4355 214.592 66.1253 214.645 65.7645 214.645ZM66.0526 213.622C66.4049 213.622 66.7068 213.552 66.9583 213.413C67.2126 213.274 67.4064 213.092 67.5395 212.868C67.6755 212.64 67.7449 212.398 67.7477 212.139L67.7569 211.295C67.7109 211.341 67.6224 211.383 67.4913 211.423C67.363 211.46 67.2164 211.493 67.0513 211.521C66.8863 211.547 66.7255 211.571 66.569 211.594C66.4125 211.614 66.2816 211.631 66.1764 211.645C65.9289 211.676 65.7025 211.729 65.4971 211.802C65.2946 211.876 65.1315 211.983 65.0078 212.122C64.887 212.258 64.8254 212.44 64.8229 212.667C64.8195 212.983 64.9334 213.221 65.1646 213.383C65.3958 213.542 65.6918 213.622 66.0526 213.622ZM70.6932 214.5L70.7645 207.955H71.996L71.9847 208.994H72.0529C72.176 208.642 72.3893 208.365 72.6926 208.163C72.9988 207.959 73.3437 207.857 73.7272 207.857C73.8067 207.857 73.9005 207.859 74.0084 207.865C74.1191 207.871 74.2057 207.878 74.2681 207.886L74.2548 209.105C74.2038 209.091 74.1131 209.075 73.9826 209.058C73.8521 209.038 73.7215 209.028 73.5909 209.028C73.2897 209.028 73.0206 209.092 72.7834 209.22C72.5491 209.345 72.3625 209.52 72.2237 209.744C72.0849 209.966 72.014 210.219 72.0109 210.503L71.9674 214.5H70.6932ZM76.6152 210.614L76.5729 214.5H75.2987L75.3699 207.955H76.593L76.5814 209.02H76.6623C76.8167 208.673 77.0555 208.395 77.3788 208.185C77.705 207.975 78.1138 207.869 78.6053 207.869C79.0513 207.869 79.4409 207.963 79.7741 208.151C80.1073 208.335 80.3642 208.611 80.5449 208.977C80.7256 209.344 80.813 209.797 80.8071 210.337L80.7618 214.5H79.4876L79.5313 210.49C79.5364 210.016 79.4169 209.645 79.1726 209.378C78.9284 209.108 78.5904 208.973 78.1586 208.973C77.8631 208.973 77.5996 209.037 77.3681 209.165C77.1395 209.293 76.957 209.48 76.8208 209.727C76.6875 209.972 76.6189 210.267 76.6152 210.614ZM82.4706 214.5L82.5418 207.955H83.816L83.7447 214.5H82.4706ZM83.1963 206.945C82.9747 206.945 82.7852 206.871 82.6277 206.723C82.4731 206.573 82.3969 206.394 82.3991 206.186C82.4014 205.976 82.4815 205.797 82.6394 205.649C82.8001 205.499 82.9912 205.424 83.2128 205.424C83.4344 205.424 83.6225 205.499 83.7771 205.649C83.9346 205.797 84.0122 205.976 84.0099 206.186C84.0077 206.394 83.9262 206.573 83.7655 206.723C83.6076 206.871 83.4179 206.945 83.1963 206.945ZM86.7753 210.614L86.733 214.5H85.4589L85.5301 207.955H86.7531L86.7415 209.02H86.8225C86.9768 208.673 87.2157 208.395 87.539 208.185C87.8651 207.975 88.2739 207.869 88.7654 207.869C89.2114 207.869 89.601 207.963 89.9342 208.151C90.2674 208.335 90.5244 208.611 90.7051 208.977C90.8857 209.344 90.9731 209.797 90.9672 210.337L90.9219 214.5H89.6478L89.6914 210.49C89.6966 210.016 89.5771 209.645 89.3328 209.378C89.0886 209.108 88.7506 208.973 88.3187 208.973C88.0233 208.973 87.7598 209.037 87.5283 209.165C87.2996 209.293 87.1172 209.48 86.981 209.727C86.8476 209.972 86.7791 210.267 86.7753 210.614ZM95.3469 217.09C94.827 217.09 94.3803 217.022 94.0068 216.886C93.6361 216.75 93.3341 216.569 93.1007 216.345C92.8674 216.12 92.6939 215.875 92.5803 215.608L93.6804 215.156C93.7558 215.281 93.8566 215.413 93.9829 215.552C94.1121 215.694 94.2869 215.815 94.5074 215.914C94.7307 216.014 95.0186 216.064 95.3708 216.064C95.8538 216.064 96.2542 215.946 96.5721 215.71C96.89 215.477 97.0517 215.105 97.0573 214.593L97.0713 213.307H96.9903C96.9121 213.446 96.7996 213.601 96.6529 213.771C96.509 213.942 96.3114 214.089 96.06 214.214C95.8086 214.339 95.4827 214.402 95.0821 214.402C94.5651 214.402 94.1005 214.281 93.6883 214.04C93.279 213.795 92.9562 213.436 92.7199 212.961C92.4865 212.484 92.3736 211.898 92.3811 211.202C92.3887 210.506 92.5131 209.909 92.7543 209.412C92.9983 208.915 93.3292 208.534 93.7468 208.27C94.1645 208.003 94.6361 207.869 95.1617 207.869C95.568 207.869 95.8953 207.938 96.1439 208.074C96.3924 208.207 96.5853 208.364 96.7226 208.543C96.8627 208.722 96.9703 208.879 97.0455 209.016H97.1393L97.1508 207.955H98.3994L98.3266 214.645C98.3205 215.207 98.1848 215.669 97.9195 216.029C97.6542 216.39 97.2976 216.657 96.8497 216.831C96.4046 217.004 95.9037 217.09 95.3469 217.09ZM95.3748 213.345C95.7413 213.345 96.0519 213.26 96.3066 213.089C96.5642 212.916 96.76 212.669 96.8942 212.348C97.0313 212.024 97.1023 211.636 97.1072 211.185C97.112 210.744 97.0508 210.356 96.9238 210.021C96.7968 209.686 96.6079 209.425 96.3571 209.237C96.1063 209.047 95.7948 208.952 95.4227 208.952C95.0391 208.952 94.7185 209.051 94.4606 209.25C94.2028 209.446 94.0067 209.713 93.8723 210.051C93.7408 210.389 93.6728 210.767 93.6682 211.185C93.6636 211.614 93.7248 211.99 93.852 212.314C93.9791 212.638 94.1696 212.89 94.4233 213.072C94.6798 213.254 94.997 213.345 95.3748 213.345ZM104.996 209.553L103.839 209.757C103.792 209.609 103.717 209.469 103.613 209.335C103.512 209.202 103.374 209.092 103.199 209.007C103.024 208.922 102.804 208.879 102.54 208.879C102.179 208.879 101.877 208.96 101.634 209.122C101.391 209.281 101.268 209.487 101.265 209.74C101.263 209.959 101.342 210.135 101.502 210.268C101.663 210.402 101.923 210.511 102.283 210.597L103.32 210.835C103.921 210.974 104.367 211.189 104.659 211.479C104.952 211.768 105.095 212.145 105.09 212.608C105.086 213 104.969 213.349 104.738 213.656C104.51 213.96 104.194 214.199 103.788 214.372C103.386 214.545 102.921 214.632 102.392 214.632C101.659 214.632 101.063 214.476 100.603 214.163C100.144 213.848 99.8643 213.4 99.7655 212.821L100.999 212.633C101.072 212.954 101.227 213.197 101.464 213.362C101.701 213.524 102.011 213.605 102.395 213.605C102.812 213.605 103.147 213.518 103.399 213.345C103.651 213.169 103.778 212.954 103.781 212.702C103.783 212.497 103.708 212.325 103.556 212.186C103.407 212.047 103.177 211.942 102.865 211.871L101.76 211.628C101.151 211.489 100.701 211.267 100.412 210.963C100.126 210.659 99.985 210.274 99.99 209.808C99.9942 209.422 100.106 209.084 100.325 208.794C100.544 208.504 100.845 208.278 101.227 208.117C101.61 207.952 102.047 207.869 102.538 207.869C103.246 207.869 103.801 208.023 104.204 208.33C104.607 208.634 104.871 209.041 104.996 209.553Z" fill="#1A191E"/>
<rect width="12" height="12" rx="6" transform="matrix(0.999985 0.0054928 -0.0163752 0.999866 121.955 203.968)" fill="#F1DFDF"/>
<path d="M142.799 214.5L142.894 205.773H148.366L148.354 206.906H144.199L144.17 209.565H148.039L148.027 210.695H144.158L144.129 213.366H148.335L148.322 214.5H142.799ZM151.005 207.955L152.421 210.503L153.907 207.955H155.3L153.223 211.227L155.246 214.5H153.852L152.405 212.054L150.908 214.5H149.51L151.583 211.227L149.607 207.955H151.005ZM156.51 216.954L156.608 207.955H157.853L157.841 209.016H157.948C158.023 208.879 158.131 208.722 158.272 208.543C158.413 208.364 158.608 208.207 158.857 208.074C159.106 207.938 159.433 207.869 159.839 207.869C160.368 207.869 160.838 208.003 161.25 208.27C161.662 208.537 161.983 208.922 162.213 209.425C162.446 209.928 162.559 210.533 162.551 211.24C162.544 211.947 162.419 212.554 162.178 213.059C161.936 213.562 161.608 213.95 161.193 214.223C160.779 214.493 160.307 214.628 159.779 214.628C159.381 214.628 159.056 214.561 158.805 214.427C158.556 214.294 158.362 214.138 158.222 213.959C158.082 213.78 157.974 213.621 157.899 213.481H157.822L157.784 216.954H156.51ZM157.821 211.227C157.816 211.687 157.879 212.091 158.008 212.437C158.138 212.784 158.328 213.055 158.579 213.251C158.83 213.444 159.138 213.541 159.505 213.541C159.886 213.541 160.205 213.44 160.463 213.238C160.721 213.034 160.917 212.757 161.051 212.408C161.189 212.058 161.26 211.665 161.264 211.227C161.269 210.795 161.208 210.408 161.081 210.064C160.957 209.72 160.767 209.449 160.51 209.25C160.257 209.051 159.938 208.952 159.555 208.952C159.185 208.952 158.872 209.047 158.614 209.237C158.359 209.428 158.165 209.693 158.03 210.034C157.896 210.375 157.826 210.773 157.821 211.227ZM166.763 214.632C166.118 214.632 165.564 214.494 165.101 214.218C164.641 213.94 164.287 213.549 164.04 213.047C163.796 212.541 163.677 211.949 163.684 211.27C163.692 210.599 163.823 210.009 164.079 209.497C164.337 208.986 164.694 208.587 165.149 208.3C165.606 208.013 166.139 207.869 166.747 207.869C167.116 207.869 167.474 207.931 167.819 208.053C168.164 208.175 168.473 208.367 168.746 208.628C169.019 208.889 169.232 209.229 169.387 209.646C169.541 210.061 169.615 210.565 169.609 211.159L169.604 211.611H164.401L164.411 210.656H168.366C168.369 210.321 168.304 210.024 168.171 209.766C168.037 209.504 167.848 209.298 167.602 209.148C167.36 208.997 167.074 208.922 166.744 208.922C166.386 208.922 166.073 209.01 165.804 209.186C165.538 209.359 165.331 209.587 165.183 209.868C165.038 210.146 164.963 210.449 164.96 210.776L164.952 211.521C164.947 211.959 165.019 212.331 165.17 212.638C165.322 212.944 165.537 213.179 165.814 213.341C166.091 213.5 166.415 213.579 166.787 213.579C167.029 213.579 167.249 213.545 167.449 213.477C167.648 213.406 167.821 213.301 167.968 213.162C168.114 213.023 168.227 212.851 168.306 212.646L169.509 212.863C169.409 213.219 169.232 213.53 168.979 213.797C168.729 214.061 168.416 214.267 168.039 214.414C167.666 214.559 167.24 214.632 166.763 214.632ZM172.303 210.614L172.26 214.5H170.986L171.057 207.955H172.28L172.269 209.02H172.35C172.504 208.673 172.743 208.395 173.066 208.185C173.392 207.975 173.801 207.869 174.293 207.869C174.739 207.869 175.128 207.963 175.462 208.151C175.795 208.335 176.052 208.611 176.232 208.977C176.413 209.344 176.5 209.797 176.495 210.337L176.449 214.5H175.175L175.219 210.49C175.224 210.016 175.104 209.645 174.86 209.378C174.616 209.108 174.278 208.973 173.846 208.973C173.551 208.973 173.287 209.037 173.056 209.165C172.827 209.293 172.645 209.48 172.508 209.727C172.375 209.972 172.306 210.267 172.303 210.614ZM183.117 209.553L181.96 209.757C181.913 209.609 181.838 209.469 181.734 209.335C181.633 209.202 181.495 209.092 181.32 209.007C181.145 208.922 180.925 208.879 180.661 208.879C180.3 208.879 179.998 208.96 179.755 209.122C179.512 209.281 179.389 209.487 179.386 209.74C179.384 209.959 179.463 210.135 179.623 210.268C179.784 210.402 180.044 210.511 180.404 210.597L181.441 210.835C182.042 210.974 182.488 211.189 182.78 211.479C183.073 211.768 183.216 212.145 183.211 212.608C183.207 213 183.09 213.349 182.859 213.656C182.631 213.96 182.315 214.199 181.91 214.372C181.507 214.545 181.042 214.632 180.513 214.632C179.78 214.632 179.184 214.476 178.724 214.163C178.265 213.848 177.985 213.4 177.887 212.821L179.12 212.633C179.193 212.954 179.348 213.197 179.585 213.362C179.822 213.524 180.132 213.605 180.516 213.605C180.933 213.605 181.268 213.518 181.52 213.345C181.772 213.169 181.899 212.954 181.902 212.702C181.904 212.497 181.83 212.325 181.678 212.186C181.529 212.047 181.298 211.942 180.986 211.871L179.881 211.628C179.272 211.489 178.823 211.267 178.533 210.963C178.247 210.659 178.106 210.274 178.111 209.808C178.115 209.422 178.227 209.084 178.446 208.794C178.665 208.504 178.966 208.278 179.348 208.117C179.731 207.952 180.168 207.869 180.659 207.869C181.367 207.869 181.922 208.023 182.325 208.33C182.728 208.634 182.992 209.041 183.117 209.553ZM187.411 214.632C186.766 214.632 186.213 214.494 185.75 214.218C185.29 213.94 184.936 213.549 184.688 213.047C184.444 212.541 184.325 211.949 184.333 211.27C184.34 210.599 184.472 210.009 184.727 209.497C184.986 208.986 185.342 208.587 185.797 208.3C186.255 208.013 186.787 207.869 187.395 207.869C187.765 207.869 188.122 207.931 188.467 208.053C188.813 208.175 189.122 208.367 189.394 208.628C189.667 208.889 189.881 209.229 190.035 209.646C190.19 210.061 190.264 210.565 190.257 211.159L190.252 211.611H185.049L185.06 210.656H189.014C189.018 210.321 188.953 210.024 188.819 209.766C188.686 209.504 188.496 209.298 188.251 209.148C188.008 208.997 187.722 208.922 187.392 208.922C187.035 208.922 186.721 209.01 186.452 209.186C186.186 209.359 185.979 209.587 185.831 209.868C185.686 210.146 185.612 210.449 185.608 210.776L185.6 211.521C185.595 211.959 185.668 212.331 185.818 212.638C185.971 212.944 186.186 213.179 186.462 213.341C186.739 213.5 187.063 213.579 187.436 213.579C187.677 213.579 187.898 213.545 188.097 213.477C188.297 213.406 188.47 213.301 188.616 213.162C188.763 213.023 188.875 212.851 188.954 212.646L190.158 212.863C190.057 213.219 189.881 213.53 189.628 213.797C189.378 214.061 189.064 214.267 188.688 214.414C188.314 214.559 187.889 214.632 187.411 214.632ZM196.593 209.553L195.436 209.757C195.39 209.609 195.314 209.469 195.211 209.335C195.11 209.202 194.972 209.092 194.797 209.007C194.622 208.922 194.402 208.879 194.138 208.879C193.777 208.879 193.475 208.96 193.232 209.122C192.988 209.281 192.865 209.487 192.863 209.74C192.86 209.959 192.939 210.135 193.1 210.268C193.26 210.402 193.52 210.511 193.88 210.597L194.917 210.835C195.518 210.974 195.965 211.189 196.257 211.479C196.549 211.768 196.693 212.145 196.688 212.608C196.684 213 196.566 213.349 196.336 213.656C196.108 213.96 195.791 214.199 195.386 214.372C194.984 214.545 194.518 214.632 193.99 214.632C193.257 214.632 192.661 214.476 192.201 214.163C191.741 213.848 191.462 213.4 191.363 212.821L192.597 212.633C192.67 212.954 192.825 213.197 193.062 213.362C193.299 213.524 193.609 213.605 193.992 213.605C194.41 213.605 194.745 213.518 194.997 213.345C195.249 213.169 195.376 212.954 195.379 212.702C195.381 212.497 195.306 212.325 195.154 212.186C195.005 212.047 194.775 211.942 194.463 211.871L193.358 211.628C192.748 211.489 192.299 211.267 192.01 210.963C191.723 210.659 191.583 210.274 191.588 209.808C191.592 209.422 191.704 209.084 191.923 208.794C192.142 208.504 192.442 208.278 192.825 208.117C193.207 207.952 193.644 207.869 194.136 207.869C194.843 207.869 195.398 208.023 195.801 208.33C196.204 208.634 196.468 209.041 196.593 209.553Z" fill="#1A191E"/>
<path d="M291.939 205.273H293.435L295.714 209.24H295.808L298.088 205.273H299.584L296.418 210.574V214H295.105V210.574L291.939 205.273ZM302.468 214.132C301.823 214.132 301.267 213.994 300.801 213.719C300.338 213.44 299.98 213.05 299.728 212.547C299.478 212.041 299.353 211.449 299.353 210.77C299.353 210.099 299.478 209.509 299.728 208.997C299.98 208.486 300.333 208.087 300.784 207.8C301.239 207.513 301.77 207.369 302.378 207.369C302.747 207.369 303.105 207.43 303.452 207.553C303.799 207.675 304.11 207.866 304.385 208.128C304.661 208.389 304.878 208.729 305.037 209.146C305.196 209.561 305.276 210.065 305.276 210.659V211.111H300.073V210.156H304.027C304.027 209.821 303.959 209.524 303.823 209.266C303.686 209.004 303.495 208.798 303.247 208.648C303.003 208.497 302.716 208.422 302.387 208.422C302.029 208.422 301.716 208.51 301.449 208.686C301.185 208.859 300.98 209.087 300.835 209.368C300.693 209.646 300.622 209.949 300.622 210.276V211.021C300.622 211.459 300.699 211.831 300.853 212.138C301.009 212.445 301.226 212.679 301.505 212.841C301.783 213 302.108 213.08 302.48 213.08C302.722 213.08 302.942 213.045 303.141 212.977C303.34 212.906 303.512 212.801 303.657 212.662C303.801 212.523 303.912 212.351 303.989 212.146L305.195 212.364C305.098 212.719 304.925 213.03 304.675 213.297C304.428 213.561 304.117 213.767 303.742 213.915C303.37 214.06 302.945 214.132 302.468 214.132ZM308.594 214.145C308.18 214.145 307.805 214.068 307.469 213.915C307.134 213.759 306.869 213.533 306.672 213.237C306.479 212.942 306.383 212.58 306.383 212.151C306.383 211.781 306.454 211.477 306.596 211.239C306.738 211 306.93 210.811 307.171 210.672C307.413 210.533 307.682 210.428 307.981 210.357C308.279 210.286 308.583 210.232 308.893 210.195C309.285 210.149 309.603 210.112 309.847 210.084C310.092 210.053 310.269 210.003 310.38 209.935C310.491 209.866 310.546 209.756 310.546 209.602V209.572C310.546 209.2 310.441 208.912 310.231 208.707C310.023 208.503 309.714 208.401 309.302 208.401C308.873 208.401 308.535 208.496 308.288 208.686C308.043 208.874 307.874 209.082 307.78 209.312L306.583 209.04C306.725 208.642 306.932 208.321 307.205 208.077C307.481 207.83 307.797 207.651 308.155 207.54C308.513 207.426 308.89 207.369 309.285 207.369C309.546 207.369 309.823 207.401 310.116 207.463C310.411 207.523 310.687 207.634 310.942 207.795C311.201 207.957 311.413 208.189 311.577 208.49C311.742 208.788 311.824 209.176 311.824 209.653V214H310.58V213.105H310.529C310.447 213.27 310.323 213.432 310.158 213.591C309.994 213.75 309.782 213.882 309.523 213.987C309.265 214.092 308.955 214.145 308.594 214.145ZM308.871 213.122C309.224 213.122 309.525 213.053 309.775 212.913C310.028 212.774 310.219 212.592 310.35 212.368C310.484 212.141 310.55 211.898 310.55 211.639V210.795C310.505 210.841 310.417 210.884 310.286 210.923C310.158 210.96 310.012 210.993 309.847 211.021C309.682 211.047 309.522 211.071 309.366 211.094C309.209 211.114 309.079 211.131 308.974 211.145C308.726 211.176 308.501 211.229 308.296 211.303C308.094 211.376 307.932 211.483 307.81 211.622C307.691 211.759 307.631 211.94 307.631 212.168C307.631 212.483 307.748 212.722 307.981 212.884C308.214 213.043 308.511 213.122 308.871 213.122ZM313.522 214V207.455H314.753V208.494H314.821C314.941 208.142 315.151 207.865 315.452 207.663C315.756 207.459 316.1 207.357 316.483 207.357C316.563 207.357 316.657 207.359 316.764 207.365C316.875 207.371 316.962 207.378 317.024 207.386V208.605C316.973 208.591 316.882 208.575 316.752 208.558C316.621 208.538 316.49 208.528 316.36 208.528C316.059 208.528 315.79 208.592 315.554 208.72C315.321 208.845 315.137 209.02 315 209.244C314.864 209.466 314.796 209.719 314.796 210.003V214H313.522Z" fill="#1A191E"/>
<path d="M329.653 212L326.825 209.171L327.768 208.229L329.653 210.115L331.539 208.229L332.482 209.171L329.653 212Z" fill="#1A191E"/>
<rect x="284.153" y="197.5" width="61" height="25" rx="3.5" stroke="#E8E8E8"/>
</g>
<rect x="5.65332" y="5" width="370" height="790" rx="45" stroke="#1A191E" stroke-width="10"/>
<defs>
<clipPath id="clip0_1_693">
<rect x="0.65332" width="380" height="800" rx="50" fill="white"/>
</clipPath>
</defs>
</svg>
